<svg xmlns="http://www.w3.org/2000/svg" viewBox="0 0 163.1 127.59"><defs><style>.cls-1{fill:#82d2ec;}.cls-2{fill:#42bfec;}</style></defs><g id="Capa_2" data-name="Capa 2"><g id="Layer_1" data-name="Layer 1"><path class="cls-1" d="M100.73,37h0c0-.25,0-.5,0-.76a36.26,36.26,0,0,0-72.51,0s0,0,0,.07a29.6,29.6,0,0,0,1.38,59.16h71.12a29.24,29.24,0,1,0,0-58.47Z"/><path class="cls-2" d="M133.86,69.11h0c0-.25,0-.49,0-.75a36.26,36.26,0,0,0-72.51,0v.07a29.6,29.6,0,0,0,1.39,59.16h71.12a29.24,29.24,0,0,0,0-58.48Z"/></g></g></svg>