<svg xmlns="http://www.w3.org/2000/svg" viewBox="0 0 1241.35 1710.84"><defs><style>.cls-1{fill:#f4ac75;}.cls-2{fill:#415da5;}.cls-3{fill:#b84c42;}.cls-4{fill:#355493;}.cls-5{fill:#233862;}.cls-6{fill:#ebba56;}.cls-7{fill:#e7a329;}.cls-8{fill:#fff;}.cls-9{fill:#2b478b;}.cls-10{fill:#c97c47;}.cls-11{fill:#d8716b;}.cls-12{fill:#739af0;}.cls-13{fill:#4a75cb;}.cls-14{fill:#dceaf9;}</style></defs><g id="Capa_2" data-name="Capa 2"><g id="Layer_1" data-name="Layer 1"><path class="cls-1" d="M765.11,1691.18c.11,5,2.64,8.43,6.89,10.67a.11.11,0,0,0,.07,0c7.86,4.14,21.53,4.31,36.37,3.39,1.91-.12,3.62-.2,5.14-.23h2.11c12.2.07,13.28,3.14,29.26,5.25l40.3-.75c11-2.8,15.84-7.66,17-10.42,1.5-3.79-12.24-7.81-27.61-12.42-.74-.21-1.48-.45-2.24-.66l-6.15-1.87c-18.3-5.71-36.34-12.55-41.15-30.87-5.09-19.44,8.13-74.19,8.13-74.19l-50.59-4.52s-3.81,57.05-6.65,74.86c-1.53,9.51-5.69,17.13-8.05,25.29-.17.58-.33,1.15-.48,1.72C766.21,1681.24,765,1686.14,765.11,1691.18Z"/><path class="cls-2" d="M778.67,1609s13.6,9.06,23.31,11,29.78-4.53,29.78-4.53c3.64-40.8,12.1-104.6,28.53-176.59,18.71-82,47.77-174.53,91.9-255.89,10.13-18.7,17.81-41.29,23.61-64.69,17.55-70.7,18.07-148.76,18.07-148.76L826.58,949.91s-2.07,111.61-10.77,211.44c-2.6,29.9-5.8,58.74-9.72,83.21-3.72,23.18-8.07,42.45-13.17,55C764.43,1369.45,778.67,1609,778.67,1609Z"/><path class="cls-1" d="M1066,1699.26c2.81,14,22.8,11.69,45.13,6.23s17,1,48.82-2.49,41.41-15.37,42.38-20.1c.87-4.19-14.84-5.67-31.68-7.61-2.12-.24-4.25-.5-6.38-.76-19-2.39-33-14.66-50.23-24.74-16.36-9.55-40.78-48.45-40.78-48.45l-43.6,3.45s22.88,34.75,31.73,49.85c5.2,8.89,4.92,20.64,4.27,29.71C1065.33,1689.28,1065,1694.32,1066,1699.26Z"/><path class="cls-3" d="M1111.13,1705.49c22.34-5.46,17,1,48.82-2.49s41.41-15.37,42.38-20.1c.87-4.19-14.84-5.67-31.68-7.61l-.16.32a89.55,89.55,0,0,1-45.52,14.15c-21.57.53-44.41-5.65-59.31-5.41-.33,4.93-.65,10,.34,14.91C1068.81,1713.29,1088.8,1711,1111.13,1705.49Z"/><path class="cls-4" d="M806.09,1244.56l54.2,194.32c18.71-82,47.77-174.53,91.9-255.89,10.13-18.7,17.81-41.29,23.61-64.69-7.1-27-25.21-81-71.52-82.93-39.38-1.6-71.07,72.48-88.47,126C813.21,1191.25,810,1220.09,806.09,1244.56Z"/><path class="cls-3" d="M845,1710.28c-16-2.11-17.06-5.18-29.26-5.25h-2.11c-1.55,0-3.26,0-5.16.14-14.55.69-28,.38-36.35-3.3a.11.11,0,0,1-.07,0c-4.25-2.24-6.78-5.65-6.89-10.67s1.1-9.94,2.3-14.73c.15-.57.31-1.14.48-1.72,15.25,3.25,36.57,13.44,57.9,17a94.28,94.28,0,0,0,48.8-5.08c15.37,4.61,29.12,8.63,27.61,12.42-1.11,2.76-5.93,7.62-17,10.42Z"/><path class="cls-2" d="M921.54,981.85s47.48,260.7,91.5,395.37,73.16,236,73.16,236-4.73,6.12-17.56,10.62c-16.75,5.87-27.43,4.92-27.43,4.92s-124-166.07-139.52-251.53S843.9,1224,810.18,1161.41c-48.34-89.78-46.47-153.16-28.92-194.66C799,924.73,921.54,981.85,921.54,981.85Z"/><path class="cls-1" d="M1155.15,575.76l2.5-23.34s34.07-5.95,35.51-43.86c0,0-.55-15.56-10.91-10.37s-5.82,4.66-20.56,11.68-25.73,20-26.06,31.74l-6.8,27.48Z"/><path class="cls-1" d="M653.33,952.17,643.56,968c-5.08,5.83-6.44,9.09-10.46,11.07-9.7,4.77-27.62,17-29,42.77,0,0,.3,14.57,10.07,9.85s5.5-4.29,19.38-10.65,19-26.59,20.25-33.49l11.33-14.87Z"/><path class="cls-5" d="M963.84,492.4c5.18-42.3-8-110-92.46-99.17s-111,93.78-94,130.67-24.51,45.79-37.55,85.47c-11.2,34.08-15.11,76.39-33.24,95.38C648.15,766,762.7,860.14,831.76,840.28c125.79-36.16,142-41.56,137.53-140.39C967,649.25,927.6,629.63,952.62,615,1013,579.58,952.12,588.11,963.84,492.4Z"/><path class="cls-1" d="M787.82,613.53a484.79,484.79,0,0,1,52-10.36h0s7.13-1.4,10.52-76.29L913.11,546s-4.75,27.65,4.54,53.22c16.68.84,26.4,2.57,27.63,2.57,0,0,53.73,116.12,45.12,169.32s-6,203.49-6,203.49l-186.88-2.32a462.72,462.72,0,0,1,23.78-82.65C838.52,845.85,787.82,613.53,787.82,613.53Z"/><path class="cls-1" d="M929.51,550.27s-75.2,15.1-83.88-31.87S821.39,441.74,869,430.11s60.31,4.56,67,19.54S948.85,545.13,929.51,550.27Z"/><path class="cls-6" d="M800.69,860.14c-2.74,30.75-31.47,101-25.25,116,6.51,15.72,15.56,23.69,35.36,28.23,13.65,3.15,32.4,4.66,58.94,6,56.3,2.8,121.72-1.29,129.93-28.05,3.93-12.85-2.67-65.54-4.75-88.48-4.32-47.48,4.72-115.62,6-159.71,1.09-36.77-21.09-120.46-21.09-120.46s-8-10.46-41.41-12.64c0,0-3.3,43.47-26,47.21-39.22,6.48-70.83-29.46-80.06-43.92,0,0-45,11.37-58.27,26.44-12.52,14.27,4.61,120,8.42,130.13,3.29,8.71,6.39,17.2,9.1,25.73C798.82,809.11,803.2,832,800.69,860.14Z"/><path class="cls-5" d="M892,418.38s1.32,15.93-23.41,43-18.84,75.23-18.84,75.23-41.68-78.34-19.44-103.36S892,418.38,892,418.38Z"/><path class="cls-5" d="M862.53,397.65S899.91,385.14,937,421.7c16,15.74,13.57,46.7,5,64.67,0,0-13.15-38.5-37.08-46.89S862.53,397.65,862.53,397.65Z"/><path class="cls-6" d="M938.46,601s25.82,104.73,40.92,113.25a246.8,246.8,0,0,0,22.08,11c57,25,107.17,22,107.17,22,16-12.38,27-35.68,34.5-61.32,15.12-51.77,16.09-113,16.09-113a41.34,41.34,0,0,0-12.58-6.09,56.47,56.47,0,0,0-17.81-1.81c-16.86,35.57-47.81,111-47.81,111C980.22,593.56,938.46,601,938.46,601Z"/><path class="cls-6" d="M832.4,604.29s-44.44,1.76-65.06,20.94c-23.3,21.69-58,154.3-67.36,218.89,0,0-47,89.65-62,125.22a28.46,28.46,0,0,0,8.41,8.52,40.73,40.73,0,0,0,12.3,5s84.87-94.72,90.44-109.7S838.1,729.26,832.4,604.29Z"/><path class="cls-7" d="M775.44,976.13c6.51,15.72,15.56,23.69,35.36,28.23,26.47-5.09,43.92-53.79,52.91-77.75C874.07,899,820.11,757,805.22,758.27c-11.07,1-13,19.65-13.38,28.89,7.16,22.52,11.36,44.82,8.85,73C798,890.89,769.22,961.17,775.44,976.13Z"/><path class="cls-7" d="M1001.46,725.28c57,25,107.17,22,107.17,22,16-12.38,27-35.68,34.5-61.32-6.19,4.16-15.93,13.92-29.73,31.52-25.93,33-69.28-23-92.26-24.61C1011.44,692.2,997.14,718.33,1001.46,725.28Z"/><path class="cls-8" d="M906.08,527.16s2,5.57,16.17,3c0,0,11.89-2.12,10.79-8.38C933,521.82,920.92,518.68,906.08,527.16Z"/><g id="man"><path class="cls-5" d="M185.48,1610.82s-21.14,19.6-17,33.51,23.2,23.21,25.78,40.22,12.89,26.29,22.17,26.29h44.24s6.83-12-9.66-15.58-22.72-23.6-21.69-42.16-1.55-43.31-1.55-43.31l-35.06-8.25Z"/><path class="cls-5" d="M572.61,1710.84H455.24a10.17,10.17,0,0,1-2.41-.71c-7.84-3.91-5.39-33.88-4.43-43.16.18-1.73.31-2.73.31-2.73s41.25-33,46.92-7.73c.18.79.37,1.57.61,2.32,7.13,23.64,39.16,34.37,57.64,37.38C568,1698.5,571.69,1706.74,572.61,1710.84Z"/><path class="cls-9" d="M547,1025.23s-6.26,78.15-13.62,172.09c-10,127.62-22,284.38-23.23,314.07-2.06,51.57-9.31,144.83-9.31,144.83s-19.58,19.6-58.77,11.34c0,0-35.94-128.53-45.91-253.11-.16-2-.31-4.1-.47-6.16C386.43,1281.46,372,1014.4,372,1014.4Z"/><path class="cls-5" d="M547,1025.23s-6.26,78.15-13.62,172.09L396.18,1414.45c-.16-2-.31-4.1-.47-6.16C386.43,1281.46,372,1014.4,372,1014.4Z"/><path class="cls-9" d="M518.42,1034.51s-112.91,283-187.15,416.05-99.17,179.6-99.17,179.6-42.54-17-46.41-28.62c0,0,30.13-266.25,79.85-328.85,28.09-35.37,61.09-141.52,62.64-178.64s10.05-110.58,10.05-110.58Z"/><path class="cls-10" d="M611.9,962.25l7.36,12.36s33.07,2.21,26.52,37c0,0-3.84,14.39-13.19,10.6s-4.87-3.73-18.24-8.77-21.68-16-19.55-26.74l-2.88-11Z"/><path class="cls-1" d="M460.51,597.6c5-29.64,5.17-47.2,5.17-47.2L408.4,504.23c2.13,63.48-38.55,94-38.55,94s76.34,37.58,120.46,23.67A105.63,105.63,0,0,0,460.51,597.6Z"/><path class="cls-1" d="M479.18,549.35s-72.88,12.1-79.72-33.4-20.86-74.58,25.39-84.23,57.91,6.34,63.89,21S498,545,479.18,549.35Z"/><path class="cls-5" d="M399.94,519.09s1.47-61,67.87-70.73c45.49-6.7,17.94-44.7,12.74-50.72,0,0-34.77,6.63-70.35,14.44C335.51,428.47,392.05,510,399.94,519.09Z"/><path class="cls-3" d="M613,967.59c5.05-13-10.54-47.16-10.54-47.16s-31.15-70.85-35-82.85c-18.54-57.39-47.35-184-47.35-184l-119,29.76S502.55,804.39,526.79,864.4c14.57,36.08,44.68,90.47,61.51,112.37a12.45,12.45,0,0,0,20.34-.86A47.6,47.6,0,0,0,613,967.59Z"/><path class="cls-11" d="M551.89,1031.73a7.09,7.09,0,0,1-4.64,1.77c-16.57-.22-50.15-1.33-91-5.52a896,896,0,0,1-112.46-17.9c-4.64-1.1-14.36-7.29-14.14-12.15.67-23.86,8.84-95.45,3.76-181.84-6-105.61,11.69-204.81,52.79-235.52,3.09-2.21,22.11,7.51,39.56,16.12,16.13,8,28.89,8.6,44.14,5.51l18.61,13.72c18.56,17.23,38.89,40.65,47.73,76.22,7.51,30.27,11.93,84.84,14.36,141.41,1.1,25.62,2,51.48,2.21,76v.88c.22,2.43.22,5.09.22,7.52C553.88,980.91,553,1030.85,551.89,1031.73Z"/><path class="cls-3" d="M551.89,1031.73a7.09,7.09,0,0,1-4.64,1.77c-16.57-.22-50.15-1.33-91-5.52-81.3-84.85-97.87-332.08-97.87-332.08,37.11-9.28,153.33,90.36,192.22,137.65,1.1,25.62,2,51.48,2.21,76l.43.88c-.22,2.87.34,3.81.34,3.81.22.89-.55,2.82-.55,3.71C553.88,980.91,553,1030.85,551.89,1031.73Z"/><polygon class="cls-2" points="655.19 773.23 650.31 753.32 530.35 263.54 538.62 261.52 658.64 751.49 663.51 771.38 663.53 771.46 655.19 773.23"/><path class="cls-12" d="M1065.82,243.16c-92.12-.1-230.8,117.9-230.8,117.9-303.27-9.52-490.75,108.75-490.75,108.75a651.81,651.81,0,0,0-131-19.41C141.62,447.09,94,456.58,94,456.58s61-300.27,398.74-394.26c.77-.21,1.54-.44,2.32-.64,3-.83,6-1.63,9.1-2.43q15.69-4.08,32.18-7.56C912.51-27.43,1065.82,243.16,1065.82,243.16Z"/><path class="cls-13" d="M835,361.08C694,356.94,578,380.19,494.2,406.23c-96.28,29.94-149.93,63.58-149.93,63.58S359,194.86,493.47,65.46c1.25-1.2,2.5-2.39,3.78-3.57l1.26-1.17s2.23.5,6.38,1.68C540.38,72.5,716.36,132.72,835,361.08Z"/><path class="cls-2" d="M502.28,63.35l-4.09,1.14L490,35a4.41,4.41,0,0,1,1.88-1.08,3.51,3.51,0,0,1,2.21-.06Z"/><path class="cls-5" d="M649.55,756l3.71,20.14,0,.08c.34,1.44,8.24,35,33.29,36.26.47,0,.93,0,1.4,0a28,28,0,0,0,22.09-10.29c7.07-8.31,10.05-20.05,8.75-26.16,0,0-.94-2.2-4.81-1.52s-3.52,3.29-3.52,3.29c.61,2.92-1.26,12.23-6.9,18.87A19.65,19.65,0,0,1,687,804c-18.21-.88-25-28-25.37-29.56l-3.71-20.16A22.92,22.92,0,0,0,649.55,756Z"/><path class="cls-1" d="M613,798.3l13.58-12.58s-9.61-32.5,29.26-39c0,0,11.72-2.71,16.79,11.06,3.78,10.26.9,9.48-4.38,25.6s-15.6,21.72-27.62,23.61l-12.19,7.32Z"/><path class="cls-11" d="M618.88,777.67s8,1.26,19.26,11.6c15.61,14.33,8.84,25.92,8.84,25.92S533.37,942.58,457.87,930.81c0,0-129.75-167.44-93-253,33.27-77.4,66.76-72.58,72.86-70.94a7.78,7.78,0,0,1,1,.31S449,713.86,492.55,844.65C494.5,850.5,538.39,833.09,618.88,777.67Z"/></g><path class="cls-14" d="M14.74,319.61c1.77,4.75.34,9.67-3.19,11S3.73,329.13,2,324.37s-2-24.78-2-24.78S13,314.86,14.74,319.61Z"/><path class="cls-14" d="M46.38,213.53c-3.53,1.32-7.83-1.47-9.6-6.22s-2-24.78-2-24.78,13,15.26,14.73,20S49.91,212.22,46.38,213.53Z"/><path class="cls-8" d="M179.88,390.05c-3.53,1.32-7.83-1.47-9.6-6.22s-2-24.78-2-24.78,13,15.27,14.74,20S183.4,388.74,179.88,390.05Z"/><path class="cls-8" d="M1047.7,612.75c2.65,7.09.52,14.43-4.75,16.4s-11.69-2.2-14.33-9.29-2.92-37-2.92-37S1045.06,605.65,1047.7,612.75Z"/><path class="cls-8" d="M948.24,241.08c-5.27,2-11.69-2.19-14.33-9.29s-2.92-37-2.92-37,19.36,22.79,22,29.88S953.51,239.12,948.24,241.08Z"/><path class="cls-8" d="M1235.46,555.32c-5.27,2-11.69-2.2-14.33-9.29s-2.92-37-2.92-37,19.36,22.79,22,29.88S1240.73,553.35,1235.46,555.32Z"/><path class="cls-14" d="M413.11,275.14c1.77,4.75.35,9.67-3.18,11s-7.83-1.47-9.6-6.22-1.95-24.78-1.95-24.78S411.34,270.39,413.11,275.14Z"/><path class="cls-8" d="M444.76,169.06c-3.54,1.32-7.83-1.47-9.6-6.22s-2-24.78-2-24.78,13,15.27,14.74,20S448.28,167.75,444.76,169.06Z"/><path class="cls-14" d="M578.25,345.59c-3.53,1.31-7.83-1.47-9.6-6.23s-1.95-24.77-1.95-24.77,13,15.26,14.73,20S581.78,344.27,578.25,345.59Z"/><path class="cls-8" d="M1005.18,137.08c1.77,4.75.34,9.67-3.19,11s-7.82-1.47-9.59-6.23-2-24.78-2-24.78S1003.41,132.33,1005.18,137.08Z"/><path class="cls-14" d="M1036.82,31c-3.53,1.32-7.83-1.47-9.6-6.22s-2-24.78-2-24.78,13,15.26,14.74,20S1040.35,29.69,1036.82,31Z"/><path class="cls-14" d="M1204,267.52c-3.53,1.32-7.83-1.47-9.6-6.22s-1.95-24.78-1.95-24.78,13,15.27,14.73,20S1207.48,266.21,1204,267.52Z"/><path class="cls-10" d="M912.37,552.31c-55.38,1.37-62.18-21.45-62.18-21.45l-.76,12.43c17.82,38.37,63.45,35.8,63.45,35.8C911.11,569.15,912.37,552.31,912.37,552.31Z"/></g></g></svg>